<svg width="2160" height="2160" fill="none" xmlns="http://www.w3.org/2000/svg"><g clip-path="url(#a)"><path d="M2408.56-137.967H-257.719V2549.95H2408.56V-137.967Z" fill="#FCE7FF"/><path d="M101.535-198.56s510.746 640.597 792.09 900.3l125.525 108.21-38.956 34.629-82.24 47.611S-36.975 381.438-335.63 78.454l-99.552-290.002 536.717 12.983v.005ZM1192.29-181.249l-82.24 805.078 51.94 47.611 679.55-913.288-649.25 60.599ZM309.298-168.266s328.955 419.853 376.566 471.793L434.82-68.714 668.552 208.3 408.85-181.254l-99.552 12.983v.005ZM2014.68-168.267l-489.11 554.034 588.66-554.034h-99.55ZM82.078 1005.58s123.422 18.15 156.095 112.53c29.782 86.03-3.631 137.95-3.631 137.95s47.192-7.26 76.231 36.3c29.042 43.56 47.192 98.01 108.903 130.68 61.711 32.67 257.737 83.49 486.437 112.54 228.697 29.04 399.317 43.56 482.807 21.78 83.49-21.78 241.34-29.42 315.82-152.47 83.49-137.94 185.13-94.38 185.13-94.38s-29.51-107.21 47.19-206.92c108.91-141.57 290.41-94.38 304.93-43.56 14.52 50.82-54.45 417.46-54.45 417.46l-461.02 148.84-1052.737 18.15-602.598-152.47-90.08-108.9 100.972-377.53ZM1451.99 913.831S1729 719.056 1824.23 649.799l-251.04 121.193s328.95-216.421 515.07-367.913c186.12-151.492 242.39-199.103 242.39-199.103l-12.98 251.044-865.68 458.805v.006ZM1547.21 589.2l489.11-294.326 17.31-56.27L1547.21 589.2Z" fill="#D2B7FF"/><path d="M2068.78-172.59s-88.73 38.952-95.22 196.94c-4.83 117.489 112.54 179.631 112.54 179.631s-106.04 45.449-123.36 157.983c-19.79 128.628 116.86 106.043 116.86 149.33 0 43.287-259.7 246.715-631.94 445.824 0 0 705.52-311.643 999.85-454.477l-4.33-688.209-374.4 12.983v-.005ZM-277.198 37.334S27.954 323.006 281.16 457.187c0 0-320.301-240.224-428.506-428.507 0 0 201.27 84.402 166.642-127.689C1.112-210.403-114.885-332.74-218.766-328.412c-103.881 4.329-110.372 142.834-110.372 142.834l51.94 222.912ZM-42.133 853.536s129.85 56.27 183.953 175.304c54.103 119.03 0 229.4 0 229.4s49.779-10.82 77.911 38.95c28.132 49.78 15.15 93.06 69.252 110.37 54.103 17.32 62.761 54.11 84.402 82.24 21.641 28.14 324.626 108.21 376.566 121.2 51.941 12.98-515.926-12.6-838.389-254.99l46.3-502.474h.005ZM1603.48 1586.81s60.6-15.15 125.52-71.42c64.92-56.27 116.87-114.7 207.76-108.21 0 0 4.33-173.13 220.75-203.43 0 0-114.7-266.193 134.18-365.745v575.675l-688.21 173.13Z" fill="#fff"/><path d="M-296.677 1225.47s445.823 346.27 1380.757 354.93c934.92 8.66 1406.72-311.64 1406.72-311.64l4.33 1363.43-2822.101-12.98 30.299-1393.74h-.005Z" fill="#FFD1FD"/><path d="M1516.91 1740.55s692.54 60.6 965.23 0l-43.28-177.46s-43.28-12.99-121.2 34.63c-57.33 35.03-129.85 108.21-121.19 134.18 0 0-502.09 30.3-679.55 8.65h-.01Z" fill="#D2B7FF"/><path d="M1066.76 1701.59s69.26 4.33 112.54 4.33c0 0 259.71 99.55 506.42 138.51 246.72 38.95 766.12 69.25 766.12 69.25l-38.95 623.29-2679.267-12.98-129.851-411.2s887.317-147.16 1462.988-411.19v-.01Z" fill="#FFD1FD"/><path d="M1516.91 1770.85s523.74 95.22 921.94 103.88l-4.33-69.25s-601.64 17.31-917.61-34.63ZM-435.181 2082.49s458.806-64.92 969.557-216.42L-495.78 2021.89l60.599 60.6ZM1928.11 2571.6l-458.81-515.08 549.7 510.75-90.89 4.33Z" fill="#FFD1FD"/><path d="m1027.81 1713.9-393.887 857.02-233.732 17.31s-12.983-95.23 77.91-181.79c90.894-86.57 147.163-82.24 147.163-82.24s30.3-82.24 95.223-125.53c64.923-43.28 194.774-220.74 307.313-484.77h.01Z" fill="#D2B7FF"/><path d="M-270.707 636.811s554.034 298.655 870.001 424.179c0 0-597.316-307.31-657.915-346.268l177.463 34.628s-285.673-151.492-432.836-290.001l43.282 177.462h.005Z" fill="#FFAF93"/><path d="M615.795 575.593s53.669-39.489 67.338-44.556l72.906-22.782s56.197 74.428 107.844 96.198c0 0 27.342 16.202 56.197 16.202 0 0 54.175-18.73 63.287-113.411 0 0 51.643-25.315 74.933-27.343 23.29-2.023 92.15 4.556 163.03 39.49 0 0 3.55 57.214 23.8 93.664 20.25 36.455 45.57 60.753 67.84 65.315 22.28 4.561 51.14-19.242 71.39-41.517 0 0 54.18-14.681 57.72-14.175 3.55.506 34.93 26.832 34.93 26.832s-45.79 65.78-53.46 146.368c-4.33 45.45-6.49 181.792-6.49 181.792s-2.23 105.3-3.25 141.76c-1.01 36.45 2.27 216.15-60.59 311.64 0 0-31.64 50.29-88.34 100.92-56.71 50.63-80 88.6-79.49 104.3l-117.97-4.05s-4.05-24.81-59.74-65.82c-55.696-41.01-143.792-97.21-154.933-105.31-11.14-8.1-60.248-53.67-83.034-95.69-22.782-42.03-54.175-106.83-60.754-161.51-6.584-54.68-18.731-187.84-18.731-187.84l-12.152-187.333s-1.516-82.023-17.213-140.243c-15.697-58.226-28.354-90.119-45.062-112.906l-.006.005Z" fill="#946BF9"/><path d="M822.99 985.25s2.162 149.33 40.036 247.8c37.875 98.47 71.42 123.36 71.42 123.36s-53.025-132.02 37.874-177.46c90.89-45.45 165.56-32.47 232.65-125.53 67.09-93.057 156.9-44.36 165.56-12.98 0 0 3.24-49.777 2.16-100.634s-1.08-101.719-1.08-101.719-3.25 58.432-27.06 70.336c-23.81 11.904-129.85 14.066-195.86 95.227-66 81.15-311.639 127.68-325.705-18.4h.005Z" fill="#FFD1FD"/><path d="m615.796 575.593 98.05-39.04s24.912 17.095 37.616 79.624c12.699 62.528 21.007 186.115 21.007 186.115l16.61 204.678s12.213 119.68 19.05 160.23c6.837 40.55 19.541 91.35 41.033 138.73 21.491 47.39 60.082 89.4 78.648 106.99 18.561 17.58 119.68 91.34 133.85 104.53 14.16 13.19 89.88 69.37 103.07 118.71l-97.32-3.91s-10.15-30.78-70.239-73.77c-60.083-42.98-150.455-99.16-171.952-120.65-21.491-21.49-63.994-77.67-84.51-129.45-20.516-51.78-32.73-101.12-36.151-136.29-3.421-35.17-16.61-186.117-16.61-186.117S677.2 811.09 675.734 793.505c-1.465-17.585-9.014-143.696-59.949-217.907l.011-.005ZM754.625 547.895s45.646 62.435 99.686 86.306c54.041 23.87 76.342 20.464 118.84 11.542 0 0 22.823-6.821 39.349-17.311 0 0-28.069 27.023-90.768 33.839-62.699 6.821-112.803-33.839-129.33-51.941-16.528-18.101-23.613-26.233-23.613-26.233s-10.753-29.907-14.164-36.202ZM1078.35 506.444s.52 8.659-.27 13.117c0 0 83.43 16.791 93.66 22.296 0 0 8.13 45.125 24.92 80.801s36.2 59.288 60.86 74.242c24.66 14.953 34.11 15.217 46.17 16.264 12.07 1.048 33.84.526 62.97-10.753 29.11-11.28 40.39-20.465 40.39-20.465l3.15-2.363s-33.84 16.264-45.38 19.675c-11.54 3.411-53.78 17.312-93.13-12.069-39.35-29.381-55.61-69.784-63.48-91.033-7.87-21.249-14.16-53.514-14.69-61.125l-2.89-2.364s-5.28-2.951-15.73-6.295c-23.95-7.667-68.97-19.752-96.54-19.938l-.01.01ZM1439.42 661.342l-20.2 13.705s-28.85 49.778-31.74 79.355c-2.88 29.577-4.33 93.783-4.33 93.783s.73 127.689 1.45 160.155c.72 32.46-12.27 207.76-12.27 207.76s-.72 64.92-22.36 126.96c-21.64 62.04-51.22 102.44-86.57 132.02-35.35 29.57-85.85 72.86-100.27 98.11l10.82 12.98s11.54-24.52 62.04-67.09c50.49-42.56 107.48-97.39 126.96-163.76 19.48-66.36 22.37-85.84 27.42-190.45 5.05-104.6 10.82-230.843 10.1-264.749-.73-33.907-2.17-103.159 2.88-132.736 5.05-29.577 19.48-82.24 36.07-106.043Z" fill="#6161E5"/><path d="m1384.36 636.858 57.72-14.174s-17.79 22.936-33.87 34.288l-57.71 9.458s20.42-14.211 33.86-29.572ZM1035.48 565.206s-25.51 51.77-115.394 55.449c0 0 16.537-5.784 36.873-32.745l78.521-22.704ZM754.511 507.502l-21.284 14.665-84.671 29.799s24.123-15.609 30.743-18.922c6.621-3.313 75.207-25.542 75.207-25.542h.005ZM650.006 650.062l101.456-33.885s9.752 56.925 15.31 115.707l-93.737 23.035s-10.325-71.492-23.034-104.857h.005Z" fill="#FFD1FD"/><path d="M702.432 1152.89s9.531 80.23 22.24 113.6c12.709 33.36 38.127 92.94 49.252 108.03l105.651-13.5s-35.749-56.4-48.458-96.91c-12.709-40.51-27.802-123.13-28.596-134.25l-100.089 23.03ZM805.869 1418.05l111.652-14.71 28.751 24.74-115.666 14.71s-20.728-18.72-24.737-24.74Z" fill="#211665"/><path d="m1292.8 1445.29 18.77.94s25.66-31.61 39.12-62.28c13.46-30.67 27.23-74.8 29.42-91.07l-16.9.62s-11.58 82.94-70.42 151.79h.01ZM830.606 1442.79l115.667-14.71 46.657 35.06-117.442 12.46s-41.352-28.23-44.882-32.81ZM879.575 1361.02s27.657 32.76 37.946 42.33l-111.652 14.71s-27.729-34.44-31.945-43.53l105.651-13.51ZM811.184 902.499s12.24 168.311 15.3 194.321c0 0-15.743-20.71-27.983.71 0 0-16.935-170.01-19.448-243.994 0 0 3.06 62.735 32.131 48.963ZM1442.08 622.678l-57.72 14.18-17.08 14.025 63.85-16.234 10.95-11.971ZM1430.04 758.009s-7.57 37.874-7.57 55.186c0 17.312-5.41 186.121-5.41 186.121s-16.24 5.414-20.56 43.284c0 0 3.6-111.819 3.97-142.479.36-30.661-1.81-64.206-1.81-64.206s6.49 22.724 10.82 11.904c4.33-10.821 7.58-81.157 20.56-89.815v.005Z" fill="#FFD1FD"/><path d="m1058.51 1615.24 100.19 2.74s-15.52-24.88-27.61-36.97l-104.98.45s20.54 17.12 32.4 33.78ZM1162.32 1572.93s5.79-8.27 9.26-12.57c3.47-4.3 11.08-12.74 11.08-12.74l22-.49s-13.73 13.89-18.69 20.34c-4.96 6.45-12.9 19.03-12.9 19.03s-8.76-11.75-10.75-13.57ZM1439.42 661.342l-19.53 12.193s-16.8 28.947-24.29 49.624c-7.5 20.676-9.3 44.195-9.3 44.195l17.57-1.29s6.46-36.187 12.41-53.504c5.94-17.317 18.9-46.868 23.14-51.218ZM1171.74 541.858l21.77-6.822s-7.81-8.008-45.23-16.29c-37.42-8.282-69.93-12.307-69.93-12.307l-.61 14.144s77.28 13.096 94 21.269v.006ZM754.625 547.895s11.357 25.779 14.164 36.202c0 0 38.205 44.304 67.029 59.474l15.17-10.113s-64.794-35.094-96.368-85.563h.005Z" fill="#211665"/><path d="M1359.62 1155.54s1.56 108.72-23.29 189.48c-24.85 80.75-135.12 158.41-164.63 198.79 0 0 45.04-54.36 85.42-100.95s85.42-85.42 102.5-287.32ZM1156.17 556.053s10.87 69.886 45.04 110.269c0 0-35.73-41.936-49.7-71.441-13.98-29.51-51.25-49.695-51.25-49.695s46.59 6.212 55.91 10.872v-.005Z" fill="#FFD1FD"/><path d="M1118.01 809.186a168.318 168.318 0 0 1 36.49 6.239c5.94 1.703 11.76 3.72 17.53 6.068 5.75 2.337 11.42 5 17 7.977a190.249 190.249 0 0 1 15.7 9.386 193.382 193.382 0 0 1 14.8 10.893c4.78 3.87 9.41 7.993 13.88 12.353 4.47 4.35 8.78 8.942 12.93 13.772a225.43 225.43 0 0 1 11.8 14.964c3.72 5.155 7.2 10.465 10.49 15.934 3.28 5.47 6.33 11.089 9.17 16.858a237.508 237.508 0 0 1 7.84 17.745c2.48 6.27 4.68 12.632 6.62 19.066a238.302 238.302 0 0 1 5 19.526c1.4 6.584 2.53 13.235 3.38 19.953.86 6.72 1.44 13.5 1.75 20.34l3.93 87.39c.18 3.96-.31 7.76-1.36 11.24-1.05 3.48-2.65 6.64-4.69 9.32-2.03 2.69-4.51 4.89-7.3 6.46-2.8 1.56-5.92 2.49-9.23 2.6-3.31.12-6.53-.58-9.49-1.96-2.96-1.37-5.67-3.42-7.99-5.99-2.31-2.56-4.23-5.65-5.62-9.1a34.199 34.199 0 0 1-2.41-11.29l-3.78-88.65c-.18-4.12-1.05-8.05-2.47-11.63-1.43-3.58-3.41-6.81-5.8-9.529-2.4-2.72-5.21-4.933-8.3-6.476-3.09-1.543-6.46-2.41-9.97-2.441-3.52-.031-6.84.784-9.85 2.286-3.01 1.507-5.69 3.7-7.92 6.419-2.22 2.721-3.99 5.981-5.15 9.601-1.17 3.61-1.74 7.6-1.57 11.79l3.63 89.98c.16 4.08-.38 8-1.52 11.58-1.14 3.58-2.85 6.84-5.03 9.6-2.17 2.77-4.82 5.05-7.79 6.66a21.92 21.92 0 0 1-9.8 2.69c-3.51.13-6.91-.59-10.04-2.01-3.12-1.41-5.98-3.52-8.42-6.16-2.44-2.65-4.45-5.83-5.9-9.39a34.23 34.23 0 0 1-2.47-11.63l-3.46-91.3c-.16-4.25-1.06-8.29-2.55-11.98-1.49-3.68-3.58-7.01-6.11-9.813-2.53-2.802-5.51-5.082-8.79-6.672-3.27-1.589-6.86-2.487-10.58-2.518-3.73-.031-7.26.81-10.45 2.353-3.19 1.543-6.05 3.808-8.41 6.61-2.38 2.81-4.27 6.16-5.52 9.89-1.25 3.72-1.88 7.83-1.73 12.15l3.27 92.72c.15 4.21-.46 8.24-1.69 11.94-1.23 3.69-3.08 7.06-5.41 9.91-2.33 2.84-5.15 5.2-8.33 6.86-3.17 1.67-6.7 2.66-10.43 2.79-3.74.13-7.35-.61-10.66-2.06-3.31-1.46-6.34-3.63-8.91-6.35-2.58-2.73-4.7-6-6.21-9.67a34.364 34.364 0 0 1-2.56-11.99l-3.07-94.14c-.14-4.37-1.07-8.55-2.63-12.34a34.09 34.09 0 0 0-6.41-10.123c-2.66-2.889-5.8-5.242-9.27-6.878-3.46-1.636-7.25-2.564-11.2-2.595-3.96-.031-7.72.83-11.12 2.425-3.4 1.594-6.453 3.927-8.992 6.816-2.539 2.885-4.572 6.355-5.929 10.195-1.362 3.85-2.054 8.09-1.92 12.53l2.854 95.65c.129 4.33-.547 8.5-1.878 12.31-1.332 3.82-3.329 7.29-5.831 10.23-2.508 2.95-5.532 5.38-8.927 7.1a26.683 26.683 0 0 1-11.151 2.89c-3.983.14-7.812-.62-11.326-2.12-3.514-1.49-6.723-3.73-9.443-6.54-2.719-2.81-4.958-6.19-6.543-9.97a34.454 34.454 0 0 1-2.641-12.38l-2.632-97.15c-.206-7.6-.067-15.13.413-22.585.48-7.446 1.3-14.814 2.456-22.085a230.893 230.893 0 0 1 4.468-21.476 226.89 226.89 0 0 1 6.45-20.763 218.43 218.43 0 0 1 7.993-19.082 206.722 206.722 0 0 1 9.582-17.838 199.712 199.712 0 0 1 11.11-16.533 194.522 194.522 0 0 1 12.57-15.16 185.483 185.483 0 0 1 13.792-13.555 177.655 177.655 0 0 1 14.775-11.744c5.09-3.617 10.3-6.909 15.68-9.907a167.754 167.754 0 0 1 16.51-8.06 162.507 162.507 0 0 1 17.71-6.301 160.644 160.644 0 0 1 18.06-4.159 158.64 158.64 0 0 1 18.36-2.033c6.17-.325 12.35-.304 18.58.067h.01Z" fill="#fff"/><path d="M1129.64 811.307a168.318 168.318 0 0 0-24.95-2.381c4.42-.092 8.86-.005 13.32.26a168.78 168.78 0 0 1 18.47 2.121 169.27 169.27 0 0 1 18.02 4.118 172.81 172.81 0 0 1 17.53 6.068c5.77 2.348 11.42 5 17 7.977a188.601 188.601 0 0 1 15.7 9.386 195.533 195.533 0 0 1 14.81 10.893c4.78 3.88 9.4 7.993 13.88 12.353a214.29 214.29 0 0 1 12.92 13.772c4.15 4.82 8.08 9.809 11.8 14.964 3.71 5.15 7.21 10.465 10.49 15.934 3.28 5.47 6.33 11.089 9.17 16.858a237.59 237.59 0 0 1 7.85 17.745c2.47 6.27 4.68 12.632 6.62 19.066a242.43 242.43 0 0 1 5 19.526 250.618 250.618 0 0 1 3.38 19.953c.85 6.72 1.44 13.5 1.74 20.34l3.93 87.39c.18 3.96-.31 7.76-1.36 11.24-1.05 3.48-2.65 6.64-4.69 9.32-2.03 2.69-4.51 4.89-7.3 6.46-2.79 1.56-5.92 2.49-9.23 2.6-1.39.05-2.77-.04-4.12-.27 2.31-.4 4.5-1.2 6.52-2.33 2.79-1.57 5.27-3.77 7.3-6.46 2.04-2.68 3.64-5.84 4.69-9.32 1.05-3.48 1.54-7.28 1.36-11.24l-3.93-87.39c-.31-6.84-.89-13.62-1.75-20.34a241.873 241.873 0 0 0-3.38-19.953 238.302 238.302 0 0 0-5-19.526 240.883 240.883 0 0 0-6.62-19.066c-2.39-6.058-5-11.976-7.84-17.745a231.988 231.988 0 0 0-9.17-16.858 230.633 230.633 0 0 0-10.49-15.934 225.43 225.43 0 0 0-11.8-14.964 211.65 211.65 0 0 0-12.93-13.772c-4.47-4.36-9.09-8.473-13.88-12.353-4.78-3.88-9.71-7.508-14.8-10.893a190.249 190.249 0 0 0-15.7-9.386 180.918 180.918 0 0 0-17-7.977 172.81 172.81 0 0 0-17.53-6.068 168.89 168.89 0 0 0-18.03-4.118Z" fill="#211665"/><path d="M1224.32 990.473a21.945 21.945 0 0 0-3.24-.269c-3.5-.031-6.84.784-9.85 2.286s-5.69 3.7-7.92 6.419c-2.22 2.721-3.99 5.981-5.15 9.601-1.17 3.61-1.74 7.6-1.57 11.79l3.63 89.98c.16 4.08-.39 8-1.52 11.58-1.14 3.58-2.85 6.84-5.03 9.6-2.17 2.77-4.82 5.05-7.79 6.66-2.21 1.2-4.62 2.04-7.15 2.44 1.37.22 2.77.3 4.19.25 3.51-.12 6.82-1.07 9.79-2.69 2.98-1.61 5.62-3.89 7.8-6.66 2.17-2.76 3.89-6.02 5.02-9.6 1.14-3.58 1.68-7.5 1.52-11.58l-3.62-89.98c-.17-4.19.39-8.18 1.56-11.79 1.17-3.62 2.93-6.88 5.15-9.601 2.23-2.719 4.91-4.917 7.92-6.419a21.603 21.603 0 0 1 6.26-2.017ZM1120.99 989.583a24.133 24.133 0 0 0-3.23-.246c-3.73-.031-7.26.81-10.45 2.353-3.19 1.543-6.05 3.808-8.41 6.61-2.38 2.81-4.27 6.16-5.52 9.89-1.25 3.72-1.88 7.83-1.73 12.15l3.27 92.72c.15 4.21-.46 8.24-1.69 11.94-1.23 3.69-3.08 7.06-5.41 9.91-2.34 2.85-5.15 5.2-8.33 6.86a23.983 23.983 0 0 1-7.85 2.56 24.049 24.049 0 0 0 14.69-2.56c3.17-1.66 5.99-4.01 8.32-6.86 2.34-2.85 4.18-6.22 5.41-9.91a33.97 33.97 0 0 0 1.69-11.94l-3.27-92.72c-.15-4.32.48-8.43 1.73-12.15 1.25-3.73 3.14-7.08 5.52-9.89 2.37-2.802 5.22-5.067 8.41-6.61a23.459 23.459 0 0 1 6.85-2.107ZM1011.36 988.638c-1.06-.14-2.13-.216-3.21-.224-3.96-.031-7.72.83-11.118 2.425-3.401 1.594-6.455 3.927-8.994 6.816-2.539 2.885-4.572 6.355-5.934 10.195-1.362 3.85-2.054 8.09-1.92 12.53l2.854 95.65c.129 4.33-.547 8.5-1.878 12.31-1.332 3.82-3.328 7.29-5.831 10.23-2.503 2.94-5.532 5.38-8.927 7.1a26.499 26.499 0 0 1-8.66 2.68c1.421.19 2.87.26 4.341.21a26.691 26.691 0 0 0 11.151-2.89c3.395-1.72 6.424-4.16 8.926-7.1 2.503-2.94 4.5-6.41 5.831-10.23a34.22 34.22 0 0 0 1.878-12.31l-2.853-95.65c-.134-4.44.557-8.68 1.92-12.53 1.362-3.84 3.395-7.31 5.934-10.195 2.538-2.889 5.59-5.222 8.99-6.816 2.35-1.1 4.86-1.851 7.5-2.201Z" fill="#211665"/><path d="M756.261 506.96s87.514 127.653 184.677 112.54c129.852-20.202 117.052-139.95 117.052-139.95 85.13-1.445 164.48 40.398 164.48 40.398s-.19 105.326 74.84 151.492c75.02 46.172 145.72-49.056 145.72-49.056l34.63 27.415c-20.2 20.201-53.75 103.881-55.19 155.821-1.44 51.941-9.37 339.78-15.15 447.99-5.77 108.21-59.22 209.92-145.78 282.06-72.56 60.46-76.47 101-76.47 101h-20.2c-7.21-44.73-83.86-107-212.266-203.67-128.406-96.66-140.393-241.21-151.936-317.68-11.543-76.46-27.09-339.999-41.517-453.978-14.427-113.979-46.172-124.082-46.172-124.082l-96.667 37.513s50.496-37.513 67.813-43.282c17.311-5.769 72.141-24.526 72.141-24.526l-.005-.005ZM712.974 537.259l43.287-30.299" stroke="#211665" strokeWidth="1.548" stroke-linecap="round" stroke-linejoin="round"/><path d="M616.312 574.773s51.941 67.813 60.599 233.732c8.499 162.839 23.38 356.365 37.807 421.295 14.428 64.92 64.924 183.23 144.279 235.17 79.356 51.95 193.333 121.2 209.203 167.37l96.67 4.33M919.296 620.944s57.901-21.641 63.675-113.979c0 0 47.609-23.085 75.029-27.415M1443.03 622.384s-54.83 11.543-59.15 14.427c-4.33 2.885-43.29 49.056-70.7 41.843" stroke="#211665" strokeWidth="1.548" stroke-linecap="round" stroke-linejoin="round"/><path d="M1440.14 659.897s-46.17 63.483-41.84 203.433c4.33 139.95-8.36 294.33-12.69 376.57-4.33 82.24-31.74 163.03-88.01 222.18-55 57.83-109.65 90.9-124.08 124.09 0 0-40.4-53.39-95.22-93.79-54.83-40.39-165.923-112.54-203.436-197.66-37.513-85.12-50.795-190.45-58.008-318.856-7.214-128.407-21.641-350.596-63.484-429.951 0 0 79.356 118.308 190.45 105.326 111.098-12.983 135.808-109.65 134.368-145.724 0 0 86.57 11.543 115.43 28.855 0 0 14.23 148.608 119.56 170.249 0 0 49.48 11.047 126.97-44.727l-.01.005Z" stroke="#211665" strokeWidth="1.548" stroke-linecap="round" stroke-linejoin="round"/><path d="M1078.19 519.948s73.58 12.983 93.79 21.641c0 0 17.12 128.407 102.24 164.48 0 0 51.33 31.125 143.35-30.464M768.207 582.693s47.931 67.828 113.577 77.927c65.645 10.098 120.676-19.046 146.646-45.016M1419.94 675.047s-28.13 36.791-33.9 92.338-2.16 178.185-1.45 232.287c.73 54.098-11.96 200.548-17.01 261.148-5.06 60.6-29.58 128.41-68.54 177.46-38.95 49.06-111.09 92.34-136.34 134.18" stroke="#211665" strokeWidth="1.548" stroke-linecap="round" stroke-linejoin="round"/><path d="M872.355 318.429s-18.767 312.242-22.183 329.301c-3.41 17.064-17.884 27.539-42.657 29.004-12.044.712-76.781 5.119-76.781 5.119s74.743 14.897 85.31 17.064c17.895 3.669 26.12 23.808 27.828 42.575 1.708 18.767 10.759 355.108 10.759 355.108s16.011-341.377 17.714-355.031c1.708-13.648 13.23-33.194 30.294-33.194s86.915.826 86.915.826-67.42-20.594-82.776-24.005c-15.357-3.41-28.091-15.118-29.799-35.593-1.708-20.475-4.634-331.184-4.634-331.184l.01.01Z" fill="#fff"/><path d="M1027.81 1710.25 807.061 2541.3l-168.809 12.99 389.558-844.04ZM1633.78 987.412s735.82-220.744 848.36-259.702l-12.98-138.51s-458.81 225.074-580.01 259.703l281.35-60.599-536.72 199.103v.005ZM-339.959 2026.22l1121.05-584.33-895.976 268.36 618.956-251.04-878.658 220.74 34.628 346.27ZM214.074-159.608S499.747 195.317 724.821 424.72c0 0-432.836-519.405-558.358-718.508l47.611 134.18ZM1369.75 476.666s541.04-571.345 670.89-740.154h-108.21s-367.91 523.734-562.68 740.149v.005Z" fill="#FFAF93"/><path d="M1330.79 1710.25s822.39 523.73 1259.56 731.5l4.33-225.08s-251.05-134.18-333.29-138.51c-82.24-4.33-90.89 25.97-90.89 25.97s-112.54-56.27-225.07-77.91c-112.54-21.64-614.63-315.97-614.63-315.97h-.01Z" fill="#D2B7FF"/><path d="M1209.6 1770.85s428.5 766.12 480.44 839.7h51.94l-532.38-839.7ZM624.964 1582.57s-6.491 106.04-25.97 147.16c-9.979 21.06-259.702 207.76-259.702 207.76s240.223-155.82 259.702-162.31c19.479-6.49 25.97 43.28 30.3 123.36 0 0 5.707-119.51 21.641-145 10.82-17.32 157.983-136.35 157.983-136.35s-132.013 73.59-155.821 82.24c-23.808 8.66-28.133-116.86-28.133-116.86Z" fill="#fff"/><path d="M535.78 1905.91s-.717 86.02-3.586 95.34c-2.869 9.32-57.343 59.49-71.683 73.11 0 0 63.793-39.42 70.966-41.57 0 0 5.015 2.15 5.732 8.6.718 6.45 11.471 93.9 11.471 93.9s2.152-96.77 2.152-101.79c0-5.01 10.036-17.2 10.036-17.2l53.762-39.42s-58.778 18.63-61.647 17.2c-2.869-1.43-17.203-88.17-17.203-88.17ZM421.836 2121.44l-601.645 493.44-134.18 4.33 735.825-497.77Z" fill="#fff"/><path d="m1029.78-153.457 50 508.744 41.16-517.568-91.16 8.824Z" fill="#FFD1FD"/><path d="m-358.235 2078.55 1076.302-582.26s-635.195 347-717.538 441.1c-82.338 94.11 20.583 82.34 5.882 217.62-14.7 135.27-164.681 173.5-164.681 173.5s-47.054 199.97-247.019 258.78l47.054-508.74ZM1332.68 1713.9 2656 2613.76l-73.51-173.51-1249.81-726.35ZM888.63 2534.36l144.09-635.2-102.923 638.14-41.167-2.94Z" fill="#D2B7FF"/><path d="M290.619 562.083s-5.413 200.187-12.983 219.666c-7.574 19.479-35.707 20.557-40.036 18.395-4.329-2.162-191.529-84.402-191.529-84.402S231.11 821.785 245.175 831.527c14.066 9.742 29.216 36.791 30.299 76.827 1.084 40.037 7.575 324.626 7.575 324.626s11.904-317.056 14.066-331.122c2.162-14.066 20.558-36.791 41.12-29.216 20.558 7.575 122.277 50.857 122.277 50.857s-119.031-66.007-130.935-78.994c-11.904-12.983-25.97-35.708-29.216-81.157-3.246-45.449-9.737-201.27-9.737-201.27l-.005.005ZM345.784 1269.84s1.884 33.07-20.289 30.41c0 0 18.767 2.85 17.059 43.41 0 0 3.602-40.18 20.47-38.29 0 0-18.767-.19-17.24-35.53ZM440.959 409.452l-6.677 45.826-25.268-2.105 24.37 9.375 1.507 53.731 6.677-50.681 23.69 2.575-22.782-10.47-1.517-48.251ZM512.281 468.023l-3.637 20.336-11.837-.908 10.923 4.246v20.336l3.948-19.123 10.923 2.126-10.619-5.769.299-21.244ZM518.659 517.492l-1.821 8.499h-8.194l7.889 2.735v10.314l2.73-9.406h6.677l-6.677-3.339-.604-8.803ZM420.99 545.289l-1.893 9.918-6.363-.382 6.074 2.729.562 9.103 1.863-8.494 6.61-.521-6.13-1.986-.723-10.367ZM1558.99 994.487s-7.05 78.863-12.68 95.763c-5.63 16.9-49.29 36.62-49.29 36.62s42.25-15.49 43.66-1.41c1.41 14.08 2.82 90.13 2.82 90.13s14.08-85.91 19.71-95.76c5.64-9.86 67.6-33.8 67.6-33.8s-69.01 7.04-69.01-8.45c0-15.5-2.81-83.093-2.81-83.093ZM1891.02 956.391s.72 23.085-4.33 27.415c-5.06 4.329-21.65 10.82-21.65 10.82s19.48-6.491 21.65-2.884c2.16 3.607 2.88 31.018 2.88 31.018s2.88-28.851 6.49-33.18c3.61-4.33 25.25-12.266 25.25-12.266s-25.25 2.885-25.97-.722c-.72-3.607-4.33-20.201-4.33-20.201h.01Z" fill="#fff"/><path d="M1990.6 695.248s-18.76 264.032-24.53 289.279c-5.77 25.253-16.59 41.123-36.79 52.663s-132.01 53.39-132.01 53.39 106.76-23.09 131.29-23.09c24.53 0 34.63 23.81 37.51 49.78 2.89 25.97 16.6 436.44 16.6 436.44s5.05-429.95 6.49-450.87c1.45-20.92 12.27-49.06 25.97-56.99 13.71-7.94 177.46-57.711 177.46-57.711l-1.44-16.594s-184.68 66.365-189.73 6.491c-5.05-59.876-10.82-282.788-10.82-282.788ZM2006.14 1713.9s-4.6 74.44-7.36 89.14c-2.75 14.7-17.46 17.46-22.97 17.46-5.51 0-39.52-6.44-39.52-6.44s34.93 12.87 43.2 17.47c8.27 4.59 18.38 15.62 19.3 25.73.92 10.11 6.43 123.14 6.43 123.14s7.36-115.79 9.19-124.06c1.84-8.27 33.08-6.43 71.68 5.52 0 0-51.46-16.55-59.73-25.74-8.27-9.19-14.7-27.57-15.62-45.95-.92-18.38-4.59-76.27-4.59-76.27h-.01Z" fill="#fff"/></g><defs><clipPath id="a"><path fill="#fff" d="M0 0h2160v2160H0z"/></clipPath></defs></svg>