<?xml version="1.0" encoding="utf-8"?>
<svg xmlns="http://www.w3.org/2000/svg" fill="none" height="2160" viewBox="0 0 2160 2160" width="2160">
<g clip-path="url(#clip0_11765_12508)">
<rect fill="white" height="2160" width="2160"/>
<path d="M2289.71 -123.495H-131.753V2283.81H2289.71V-123.495Z" fill="#FDF0FF"/>
<path d="M1086.47 1668.26C1408.14 1668.26 1668.89 1407.32 1668.89 1085.44C1668.89 763.55 1408.14 502.611 1086.47 502.611C764.81 502.611 504.051 763.55 504.051 1085.44C504.051 1407.32 764.81 1668.26 1086.47 1668.26Z" fill="#E2D3FF"/>
<path d="M867.683 -123.494L1024.05 564.643L1090 562L994.292 -131.415L857.131 -126.133" fill="#E2D3FF"/>
<path d="M1097.45 548L1036.5 -134.053L1065.51 -136.692L1108 548H1097.45Z" fill="#E2D3FF"/>
<path d="M1204 550L1329.29 -144.612L1374.13 -147.251L1217.19 555.282L1204 550Z" fill="#E2D3FF"/>
<path d="M1472 864L2297.35 768.684V876.907H1500L1472 864Z" fill="#E2D3FF"/>
<path d="M1607.36 898.024L2326.36 911.22L2329 937.615L1610 911.222L1607.36 898.024Z" fill="#E2D3FF"/>
<path d="M1630.29 1156.5L2299.98 1346.76V1410.1L1627.65 1193.45L1606.55 1248.88L2284.16 1497.21L2278.88 1523.61L1596 1270L1630.29 1156.5Z" fill="#E2D3FF"/>
<path d="M886.144 1632L698.867 2318.12L783.275 2315.48L936 1632H886.144Z" fill="#E2D3FF"/>
<path d="M574 1298L-146 1528V1400.34L548 1274L574 1298Z" fill="#E2D3FF"/>
<path d="M550 942L-156.055 730.602V655.874L553.113 898.41L578.004 833.018L-137.385 553.117L-131.164 521.979L590.452 808.11L550 942Z" fill="#E2D3FF"/>
<path d="M1431.97 1159C1431.64 1161 1426.32 1181.63 1436 1176C1422.85 1176.67 1423.3 1199.96 1431.97 1195.5C1429.97 1225.23 1428.97 1226.61 1431.97 1256C1433.64 1274.04 1436.98 1289.8 1431.97 1307.5C1413.28 1373.97 1408.61 1443.42 1410.95 1511.55C1411.95 1531.93 1419.29 1550.63 1431.97 1567.33C1434.46 1570.67 1437.09 1573.76 1439.86 1576.66C1441.75 1567.78 1443.32 1559.35 1444.77 1552.94C1448.34 1537.1 1450.89 1508.5 1453.45 1482.96C1456 1457.42 1460.59 1362.67 1460.59 1362.67C1460.59 1362.67 1480.24 1303.68 1480.76 1301.63C1481.27 1299.59 1480.5 1288.09 1478.71 1276.09C1476.93 1264.09 1466.21 1215.57 1466.21 1215.57L1461.84 1190.95C1461.84 1186.9 1466.55 1137.71 1467.9 1128.95C1469.25 1120.19 1476.65 1072.34 1476.65 1072.34C1476.64 1068.49 1470.05 1065.66 1463.46 1064.63C1463.46 1064.63 1447.83 1066.03 1445.5 1077C1440.49 1100.38 1440.01 1124.45 1436 1147.5L1431.97 1159Z" fill="#F49F82"/>
<path d="M850.544 1633.8C778.116 1614.09 710.36 1601.73 635.595 1586.37C629.254 1585.03 623.58 1586.03 617.572 1586.37C596.718 1587.33 576.788 1587.99 556.004 1592.78C556.338 1595.96 557.553 1598.97 558.15 1599.42C559.172 1600.19 622.718 1601.98 625.782 1602.49C628.803 1602.99 719.886 1625.09 732.97 1628.16C748.958 1625.23 764.959 1622.41 781.787 1624.78C801.48 1627.45 819.504 1629.79 839.53 1633.8C862.56 1638.14 882.92 1644.15 904.949 1650.5C929.648 1657.85 953.68 1664.53 978.713 1671.88C984.444 1673.44 989.564 1675.81 995.184 1677.58C963.77 1665.68 930.783 1657.56 898.608 1646.83C882.587 1641.48 866.899 1638.14 850.544 1633.8V1633.8Z" fill="#F49F82"/>
<path d="M891.932 1531.26C883.254 1525.58 873.909 1521.57 863.896 1518.57C814.497 1504.54 765.433 1495.52 715.033 1492.51C682.657 1482.16 650.615 1471.81 616.237 1468.8C594.989 1466.7 573.951 1466.87 552.954 1468.82C550.664 1473.42 550.998 1475.89 552.026 1477.09C553.558 1478.88 591.074 1480.16 601.027 1481.17C610.98 1482.2 638.289 1486.28 656.663 1490.11C675.037 1493.94 721.742 1505.44 721.742 1505.44C721.742 1505.44 739.352 1512.84 743.945 1514.37C748.537 1515.91 768.447 1516.16 768.447 1516.16C768.447 1516.16 880.848 1556.11 883.401 1558.16C885.127 1559.54 887.53 1562.89 888.845 1564.85C893.404 1554.51 893.451 1542.5 891.932 1531.26Z" fill="#F49F82"/>
<path d="M1008.75 1413.69C988.393 1401.67 966.03 1394.32 944.001 1386.64C919.635 1352.57 879.583 1338.54 841.533 1324.51C839.61 1323.66 836.6 1322.66 835.114 1320.84C835.011 1320.91 834.907 1320.98 834.804 1321.04C829.444 1324.62 830.976 1331.77 832.251 1332.28C833.526 1332.79 847.818 1337.13 864.153 1343C880.487 1348.88 900.904 1365.48 901.926 1366.24C902.947 1367.01 924.385 1387.19 924.385 1387.19C924.385 1387.19 927.703 1388.21 928.467 1388.46C929.231 1388.72 957.051 1402.25 961.901 1404.81C966.751 1407.36 994.057 1422.94 994.057 1422.94L995.235 1425.85C1001.17 1425.44 1006.11 1419.63 1008.75 1413.69L1008.75 1413.69Z" fill="#F49F82"/>
<path d="M1889.36 1891.33L1662.98 1767.72L1583.8 1720.75C1583.26 1721.05 1582.72 1721.34 1582.17 1721.64C1556.14 1735.33 1533.78 1750.69 1509.08 1768.06C1487.71 1783.09 1469.69 1797.46 1451.33 1814.82C1418.96 1844.22 1394.59 1877.62 1374.9 1917.36C1370 1927.02 1365.22 1936.57 1360.68 1946.17C1399.47 1983.93 1442.21 2025.41 1442.21 2025.41L1646.72 2199.79L2161.66 2183.29L2206.43 2061.92L1889.35 1891.33H1889.36Z" fill="#FFD7A3"/>
<path d="M1451.33 1814.83C1469.69 1797.46 1487.72 1783.1 1509.08 1768.07C1533.78 1750.7 1556.14 1735.33 1582.17 1721.64C1582.72 1721.35 1583.26 1721.05 1583.8 1720.75L1485.6 1662.5C1473.35 1657.39 1428.94 1613.72 1428.94 1613.72C1433.65 1603.69 1437.09 1589.69 1439.86 1576.66C1437.1 1573.76 1434.46 1570.66 1431.98 1567.33C1419.29 1550.63 1423.5 1522.37 1422.5 1502C1421.95 1486 1412.31 1450.93 1414 1435C1411.66 1454.95 1394.83 1496.39 1390.5 1516C1386.34 1534.85 1385.96 1558.29 1380 1576.66C1375.1 1591.76 1363.79 1593.14 1351 1603C1338.5 1612.63 1330.79 1631.21 1315 1631C1316.09 1635.25 1308.41 1642.63 1308 1647C1306.97 1658.11 1304.27 1665.78 1298 1675C1292.91 1682.48 1284.46 1680.72 1277.5 1686.5C1270.63 1692.2 1266.04 1694.97 1257.73 1698.13C1256 1698.79 1223.5 1715.7 1223.5 1714.63H1219C1192.97 1719.97 1190.87 1717.63 1165.5 1714.63C1151.82 1712.96 1139.52 1707.95 1125.5 1705.27C1111.82 1702.27 1103.35 1701.8 1090 1698.13C1060.63 1689.78 1030.87 1675.18 1000.5 1668.5C992.823 1666.83 985.843 1665 978.5 1663C953.467 1655.65 928.199 1648.35 903.5 1641C881.471 1634.65 862.56 1638.14 839.53 1633.8C819.504 1629.79 801.48 1627.45 781.788 1624.78C764.959 1622.41 748.958 1625.23 732.97 1628.16C733.157 1628.2 733.33 1628.24 733.484 1628.28C744.458 1630.83 758.751 1627.26 758.751 1627.26L765.386 1627.77C779.932 1630.83 862.877 1655.35 862.877 1655.35C871.045 1660.71 1067.56 1759.04 1067.56 1759.04C1091.55 1774.1 1249.27 1840.25 1249.27 1840.25C1249.27 1840.25 1270.77 1857.8 1286.08 1871.48C1294.47 1878.98 1301.09 1886.36 1301.09 1886.64C1301.09 1886.98 1328.49 1914.83 1360.68 1946.17C1365.22 1936.57 1370 1927.03 1374.9 1917.37C1394.59 1877.62 1418.95 1844.22 1451.33 1814.83H1451.33Z" fill="#F49F82"/>
<path d="M1666.2 1769.77C1666.2 1769.77 1666.31 1765.22 1662.67 1760.01C1660.58 1757.02 1661.67 1757.27 1649.62 1749.28C1610.39 1723.22 1529.57 1673.66 1529.57 1673.66C1529.57 1673.66 1486.48 1642.68 1424.89 1685.64C1419.77 1689.21 1414.28 1693.31 1408.68 1697.88C1400.28 1704.74 1391.65 1712.66 1383.69 1721.49C1354.16 1754.25 1325.26 1799.34 1311.65 1842.48C1305 1863.55 1295.98 1897.04 1301.5 1920.99C1301.5 1920.99 1411.83 2031.19 1415.56 2036.79C1419.29 2042.4 1441.19 2049.73 1454.43 2037.2C1449.77 2033.23 1444.35 2029.18 1441.02 2022.56C1438.22 2016.98 1437.25 2009.46 1438.58 2003.16C1440.15 1995.75 1442.67 1986.47 1447.36 1973.15C1451.01 1962.8 1457.85 1949.24 1465.04 1935.57C1471.91 1922.52 1479.19 1909.18 1489.91 1892.39C1499.52 1877.32 1510.39 1859.93 1524.78 1842.37C1532.76 1832.62 1542.1 1823.15 1551.81 1812.66C1551.81 1812.66 1576.81 1787.12 1606.46 1772.09C1615.1 1767.72 1623.95 1764.78 1632.92 1762.94C1645.03 1760.46 1660.96 1765.75 1666.2 1769.77L1666.2 1769.77Z" fill="#7132F5"/>
<path d="M1666.2 1769.77C1666.2 1769.77 1644.34 1753.23 1613.27 1769.09C1582.19 1784.94 1548.68 1806.89 1496.28 1883.11C1443.88 1959.32 1437.18 2005.05 1437.79 2010.54C1438.4 2016.03 1438.18 2026.66 1454.43 2037.2C1454.43 2037.2 1431.1 2053.29 1415.56 2036.79C1415.56 2036.79 1398.18 2000.78 1441.44 1920.3C1484.7 1839.82 1538.93 1785.55 1565.13 1769.7C1586.74 1753.75 1641.41 1733.49 1663.2 1760.3C1665.49 1763.11 1666.2 1766.47 1666.2 1769.77V1769.77Z" fill="#211665"/>
<path d="M1358.58 1763.6C1358.58 1763.6 1307.4 1825.79 1306.79 1916.03L1404.89 2013.58C1404.89 2013.58 1400.62 1991.63 1418.9 1948.95C1418.9 1948.95 1411.59 1952 1404.89 1952.61C1398.18 1953.22 1387.83 1967.24 1375.03 1957.49C1362.23 1947.73 1371.38 1927 1350.66 1913.58C1329.94 1900.17 1323 1871.02 1330.55 1836.15C1338.47 1799.57 1353.09 1770.3 1358.58 1763.59L1358.58 1763.6Z" fill="#FEFCFC"/>
<path d="M1469.17 1668.47C1469.17 1668.47 1493.99 1661.94 1520.12 1674.57C1546.24 1687.21 1624.62 1739.06 1624.62 1739.06C1624.62 1739.06 1601.54 1735.57 1587.17 1747.34C1587.17 1747.34 1595.01 1733.83 1586.74 1724.24C1578.47 1714.66 1534.42 1711.95 1522.3 1693.74C1510.1 1675.44 1485.28 1664.99 1469.17 1668.47Z" fill="#FEFCFC"/>
<path d="M1458.29 1674.14C1458.29 1674.14 1407.34 1693.31 1376.86 1739.06C1376.86 1739.06 1403.42 1711.18 1422.15 1726.43C1440.87 1741.68 1425.19 1745.6 1445.22 1755.62C1465.25 1765.64 1488.33 1759.98 1497.47 1783.51C1506.62 1807.04 1484.85 1847.13 1484.85 1847.13C1484.85 1847.13 1517.94 1793.97 1566.71 1763.9C1566.71 1763.9 1494.43 1762.6 1467.43 1737.32C1440.44 1712.05 1443.92 1688.09 1458.29 1674.14V1674.14Z" fill="#FFCAB1"/>
<path d="M1666.2 1769.77C1666.2 1769.77 1642.23 1751.13 1606.46 1772.09C1593.85 1779.48 1579.3 1788.18 1565.17 1800.37C1539.24 1822.76 1511.89 1855.96 1480.43 1907.68C1433.85 1988.42 1432.69 2013.07 1443.92 2027.05C1448.61 2032.9 1492.58 2069.22 1492.58 2069.22L1585.1 2146.87C1585.1 2146.87 1496.92 2072.69 1531.64 1968.47C1566.35 1864.26 1658.83 1789.62 1698.75 1787.02L1666.2 1769.77Z" fill="#F49F82"/>
<path d="M1455.67 1096.39C1458.01 1085.41 1460.83 1075.09 1463.45 1064.63C1460.52 1064.17 1457.59 1064.06 1455.23 1064.38C1447.58 1065.4 1438.64 1074.85 1438.64 1074.85C1407 1103.96 1390.15 1141.5 1389.64 1142.78C1389.13 1144.06 1379.94 1167.04 1375.1 1189.52C1370.25 1211.99 1376.12 1240.85 1376.12 1240.85L1365.14 1303.68L1360.29 1313.38L1350.08 1322.83C1334.01 1339.94 1277.09 1410.94 1277.09 1410.94C1277.09 1410.94 1271.22 1414.52 1270.46 1414.77C1269.69 1415.03 1181.64 1410.43 1181.64 1410.43L1068.58 1405.32C1068.58 1405.32 1022.9 1380.55 1010.65 1373.65C998.399 1366.76 961.39 1352.2 961.39 1352.2C961.39 1352.2 950.162 1345.81 944.034 1341.98C937.909 1338.15 904.732 1321.29 877.423 1315.42C850.631 1309.66 840.545 1317.17 835.111 1320.83C836.596 1322.66 839.607 1323.65 841.529 1324.51C879.579 1338.54 919.632 1352.56 943.997 1386.63C966.026 1394.31 967.408 1395.62 987.768 1407.64C998.502 1415.27 998.189 1420.4 995.235 1425.85L994.567 1425.49C994.567 1425.49 991.76 1426.51 985.635 1425.24C979.511 1423.96 892.226 1399.44 885.848 1397.15C879.466 1394.85 874.109 1395.36 874.109 1395.36L858.542 1386.42C823.322 1365.22 800.609 1357.56 799.331 1357.05C798.052 1356.54 769.982 1355.52 758.497 1355.27C747.012 1355.01 715.367 1358.33 704.135 1362.93C701.679 1363.93 699.76 1365.67 698.261 1367.77C713.678 1364.59 730.009 1368.56 746.077 1370.94C759.094 1373.27 771.11 1376.95 783.46 1380.96C804.154 1387.97 822.177 1398.99 839.533 1411.69C879.586 1419.37 911.825 1428.09 944.535 1454.81C940.733 1461.06 945.095 1465.27 939.722 1470.37C939.989 1470.64 940.142 1471 939.959 1471.47C939.448 1472.74 934.345 1477.6 934.345 1477.6L887.897 1473.51C887.897 1473.51 836.6 1468.41 823.329 1466.11C810.058 1463.81 767.692 1465.09 767.692 1465.09C767.692 1465.09 733.748 1453.85 722.773 1451.81C711.799 1449.76 675.815 1435.21 649.527 1435.72C623.239 1436.23 589.805 1441.33 580.873 1444.14C571.942 1446.95 566.328 1450.27 558.414 1460.49C555.821 1463.84 554.078 1466.58 552.96 1468.82C573.958 1466.87 594.995 1466.7 616.243 1468.8C650.622 1471.81 682.664 1482.16 715.04 1492.51C765.439 1495.52 800.102 1501.64 849.5 1515.67C859.513 1518.67 876.255 1526.56 882.94 1537.15C887.763 1546.49 891.185 1549.44 889.005 1564.23C889.633 1565.17 888.404 1566.22 888.404 1566.22C888.404 1566.22 888.404 1568.01 887.383 1570.56C886.362 1573.12 872.837 1576.44 872.837 1576.44C872.837 1576.44 813.115 1570.31 773.56 1567.5C734.001 1564.69 714.095 1568.01 714.095 1568.01C714.095 1568.01 676.579 1563.67 656.927 1561.88C637.274 1560.1 604.351 1559.33 604.351 1559.33C575.002 1565.71 559.943 1582.82 557.136 1586.66C555.977 1588.24 555.777 1590.56 556.011 1592.79C576.795 1587.99 596.724 1587.33 617.578 1586.37C623.586 1586.04 629.26 1585.04 635.602 1586.37C710.367 1601.74 778.123 1614.09 850.551 1633.8C866.906 1638.14 882.593 1641.48 898.614 1646.83C930.79 1657.56 963.777 1665.68 995.191 1677.58C996.773 1678.08 998.392 1678.52 1000.08 1678.89C1038.75 1687.3 1075.08 1703.34 1113.87 1711.56C1154.12 1720.1 1196.13 1726.28 1237.03 1718.54C1242.69 1717.47 1248.31 1716.14 1253.84 1714.52C1266.53 1710.82 1278.91 1705.55 1289.4 1697.51C1309.01 1682.48 1320.77 1657.71 1320.02 1633C1339.56 1636.49 1359.49 1625.47 1371.73 1609.85C1383.97 1594.22 1389.87 1574.64 1394.59 1555.35C1414.05 1475.94 1417.89 1393.06 1444.12 1315.25C1450.3 1296.95 1450.77 1277.17 1449 1258.05C1446 1228.65 1438.66 1200.26 1440.66 1170.54C1440.66 1169.67 1441.38 1165.21 1441.66 1163.52C1445.67 1140.48 1450.67 1119.77 1455.68 1096.39L1455.67 1096.39Z" fill="#FFD7A3"/>
<path d="M1267.63 1414.82L1172.4 1409.82L1124.55 1408.16L1102.27 1406.76L1011.26 1408.27C1011.26 1408.27 1065.39 1425.08 1068.19 1426.94C1070.99 1428.81 1003.79 1437.22 980.462 1453.09C957.131 1468.97 952.465 1477.37 952.465 1477.37L1008.46 1480.18L917.936 1514.73C917.936 1514.73 1068.19 1511.93 1145.65 1530.61C1223.11 1549.28 1290.31 1574.5 1290.31 1574.5C1290.31 1574.5 1146.59 1481.11 1143.79 1480.18C1140.99 1479.24 1292.6 1422.9 1292.6 1422.9C1292.6 1422.9 1255.77 1415.74 1255.78 1415.74L1267.63 1414.82Z" fill="#FEFCFC"/>
<path d="M1189.84 1453.84L1270.46 1414.77L1252.27 1414.13L1189.84 1453.84Z" fill="#F49F82"/>
<path d="M937.235 1441.76C907.66 1424.29 873.011 1418.11 839.53 1411.69C822.174 1398.99 804.15 1387.97 783.456 1380.96C771.107 1376.95 759.091 1373.27 746.074 1370.94C730.006 1368.56 713.675 1364.59 698.258 1367.77C692.904 1375.29 692.904 1387.44 692.904 1387.44C692.904 1387.44 719.192 1388.72 724.042 1389.23C728.891 1389.74 788.356 1406.6 788.356 1406.6L840.164 1434.18L844.246 1436.99C848.328 1439.8 862.62 1442.1 862.62 1442.1L881.505 1447.97C928.721 1462.78 938.417 1469.68 938.417 1469.68C938.417 1469.68 940.146 1471.49 940.616 1471.97C940.67 1471.92 940.723 1471.86 940.776 1471.81C949.812 1463.12 948.023 1448.13 937.232 1441.76L937.235 1441.76Z" fill="#F49F82"/>
<path d="M1455.23 1064.37C1455.23 1064.37 1447.37 1066.16 1440.67 1072.87C1433.96 1079.58 1397.64 1118.16 1387.03 1149.48C1376.41 1180.79 1369.68 1213.67 1376.12 1240.85L1365.14 1303.67L1406.02 1245.09L1382.56 1262.43L1387.59 1230.56C1387.59 1230.56 1396.53 1160.1 1416.64 1123.76C1436.75 1087.42 1455.24 1064.37 1455.24 1064.37H1455.23Z" fill="#FEFCFC"/>
<path d="M1385.91 1274.17L1375.85 1294.86L1409.94 1280.32C1409.94 1280.32 1380.32 1298.77 1376.41 1303.24C1372.5 1307.72 1292.59 1422.9 1292.59 1422.9L1188.1 1456.45L1277.09 1410.94C1277.09 1410.94 1347.53 1324.63 1360.29 1313.38L1385.9 1274.17L1385.91 1274.17Z" fill="#FEFCFC"/>
<path d="M1067.41 1590.65C1067.41 1590.65 1156.81 1575.56 1188.1 1583.39C1219.4 1591.22 1280.86 1627 1280.86 1627C1280.86 1627 1167.99 1575.56 1067.41 1590.65Z" fill="#FEFCFC"/>
<path d="M604.344 1559.32C604.344 1559.32 621.71 1556.54 714.088 1568.01C714.088 1568.01 751.704 1564.37 789.143 1568.29C826.583 1572.2 872.833 1576.43 872.833 1576.43L882.046 1573.28L888.623 1569.58L893.631 1539.77C893.631 1539.77 904.805 1571.08 913.186 1582.26C921.567 1593.44 927.155 1598.48 927.155 1598.48C927.155 1598.48 785.786 1576.11 755.055 1576.67C724.322 1577.23 707.56 1577.23 707.56 1577.23C707.56 1577.23 594.131 1569.96 594.131 1568.28C594.131 1566.6 590.529 1564.33 604.344 1559.31V1559.32Z" fill="#FEFCFC"/>
<path d="M767.682 1465.08C767.682 1465.08 674.35 1437.68 666.416 1437.22C658.482 1436.75 637.017 1436.75 637.017 1436.75L754.141 1471.3L767.679 1465.08H767.682Z" fill="#FEFCFC"/>
<path d="M810.142 1466.17L934.338 1477.6C934.338 1477.6 889.933 1485.31 877.337 1484.85C864.737 1484.38 810.142 1466.17 810.142 1466.17V1466.17Z" fill="#FEFCFC"/>
<path d="M842.337 1398.93C842.337 1398.93 875.354 1393.23 880.601 1395.19C885.847 1397.15 985.635 1425.24 985.635 1425.24L994.567 1425.5L953.86 1435.82C953.86 1435.82 877.333 1400.8 842.334 1398.93H842.337Z" fill="#FEFCFC"/>
<path d="M871.735 1394.26C871.735 1394.26 813.405 1359.7 797.541 1356.9C781.677 1354.1 747.145 1355.97 747.145 1355.97C747.145 1355.97 779.344 1359.7 791.476 1364.84C803.609 1369.97 840.007 1392.85 840.007 1392.85C840.007 1392.85 867.54 1392.85 871.738 1394.25L871.735 1394.26Z" fill="#FEFCFC"/>
<path d="M1188.58 1454.96C1191.38 1453.09 1274.44 1414.8 1277.24 1410.14C1280.04 1405.47 1340.7 1330.75 1358.43 1314.88C1376.17 1299 1396.7 1288.73 1396.7 1288.73" stroke="black" strokeLinejoin="round" strokeWidth="1.4781"/>
<path d="M1358.43 1314.87L1385.5 1274.72" stroke="black" strokeLinejoin="round" strokeWidth="1.4781"/>
<path d="M1365.9 1300.87L1376.17 1241.1C1376.17 1241.1 1366.83 1211.21 1382.7 1160.78C1398.56 1110.35 1440.56 1070.19 1450.83 1065.52C1461.09 1060.85 1476.02 1067.39 1476.96 1072.06C1477.89 1076.73 1458.29 1171.98 1462.02 1194.4C1465.76 1216.81 1483.49 1284.99 1480.69 1300.87C1477.89 1316.74 1461.09 1361.57 1461.09 1361.57C1461.09 1361.57 1455.49 1468.04 1449.89 1520.34C1444.29 1572.63 1429.36 1613.73 1429.36 1613.73C1429.36 1613.73 1462.96 1649.21 1484.42 1661.36" stroke="black" strokeLinejoin="round" strokeWidth="1.4781"/>
<path d="M1269.77 1414.8L1068.19 1405.47C1068.19 1405.47 984.193 1356.9 960.863 1352.23C960.863 1352.23 897.399 1309.27 851.673 1313.94C851.673 1313.94 824.607 1319.55 832.073 1332.62C832.073 1332.62 866.605 1340.09 890.867 1357.83C915.133 1375.58 922.599 1387.72 925.399 1387.72C928.2 1387.72 985.128 1416.67 992.594 1422.28C1000.06 1427.88 988.863 1426.01 976.73 1423.21C964.598 1420.41 891.802 1398.93 882.47 1396.13C873.137 1393.33 842.34 1397.99 842.34 1397.99" stroke="black" strokeLinejoin="round" strokeWidth="1.4781"/>
<path d="M872.203 1394.26C872.203 1394.26 813.409 1358.77 796.611 1356.9C779.812 1355.04 710.751 1353.17 698.618 1367.18C698.618 1367.18 690.221 1377.45 693.018 1387.72C693.018 1387.72 720.083 1388.66 724.749 1389.59C729.416 1390.52 763.013 1398.93 789.144 1407.33C789.144 1407.33 836.74 1431.62 843.272 1436.28C849.804 1440.95 861.936 1441.89 867.537 1443.76C873.138 1445.62 940.333 1465.24 940.333 1471.77L934.732 1477.38C934.732 1477.38 843.272 1469.91 827.408 1467.1C811.543 1464.3 772.345 1465.24 768.614 1465.24C764.882 1465.24 690.221 1440.95 666.887 1437.22C643.556 1433.49 583.828 1440.95 573.561 1446.56C563.294 1452.16 551.161 1468.97 551.161 1473.64C551.161 1478.31 555.828 1478.31 555.828 1478.31C555.828 1478.31 589.425 1480.18 609.955 1482.05C630.486 1483.91 715.414 1501.66 726.612 1507.26C737.81 1512.86 748.077 1515.66 752.743 1515.66C757.409 1515.66 768.607 1516.6 768.607 1516.6C768.607 1516.6 877.797 1553.02 883.398 1558.62C888.999 1564.23 889.93 1567.03 888.064 1569.83C886.198 1572.63 872.2 1576.37 872.2 1576.37C872.2 1576.37 737.81 1561.42 714.479 1567.96C714.479 1567.96 623.954 1556.76 605.289 1559.56C586.625 1562.36 554.893 1580.1 555.828 1591.31C555.828 1591.31 556.762 1598.78 559.559 1599.72C562.359 1600.65 613.687 1600.65 625.819 1602.52C637.952 1604.38 729.412 1629.6 739.679 1629.6C749.946 1629.6 759.278 1626.8 764.875 1627.73C770.476 1628.67 849.804 1649.21 861.002 1654.82C872.2 1660.42 1103.65 1779.03 1121.38 1785.57C1139.11 1792.1 1249.24 1840.67 1249.24 1840.67C1249.24 1840.67 1294.97 1877.09 1299.63 1885.5" stroke="black" strokeLinejoin="round" strokeWidth="1.4781"/>
<path d="M1454.56 2037.72C1454.56 2037.72 1433.09 2052.66 1416.29 2036.78C1408.62 2029.53 1301.5 1920.98 1301.5 1920.98C1294.97 1890.16 1308.97 1816.38 1371.5 1736.07C1400.73 1698.52 1431.59 1678.93 1456.17 1668.72C1480.94 1658.43 1509.16 1660.81 1531.91 1675.02C1573.29 1700.86 1646.54 1746.73 1650.54 1750.07" stroke="black" strokeLinejoin="round" strokeWidth="1.4781"/>
<path d="M1416.29 2036.79C1416.29 2036.79 1384.54 1985.49 1490.02 1844.4C1587.08 1714.59 1665.48 1742.61 1666.41 1769.69" stroke="black" strokeLinejoin="round" strokeWidth="1.4781"/>
<path d="M1644.36 2197.43L1448.95 2032.86C1440.46 2025.92 1436.36 2014.95 1438.23 2004.15C1442.31 1980.66 1458.79 1933.69 1518.02 1850.94C1518.02 1850.94 1554.3 1801.14 1600.22 1775.38C1623.84 1762.13 1642.64 1756.7 1666.41 1769.69L2245.32 2083.13" stroke="black" strokeLinejoin="round" strokeWidth="1.4781"/>
<path d="M1281.9 1627.73C1281.9 1627.73 1223.11 1589.44 1185.78 1582.91C1148.45 1576.37 1067.25 1591.31 1067.25 1591.31" stroke="black" strokeLinejoin="round" strokeWidth="1.4781"/>
<path d="M888.684 1569.12C888.684 1569.12 891.484 1552.31 894.285 1539.23" stroke="black" strokeLinejoin="round" strokeWidth="1.4781"/>
<path d="M1050.98 1379.33H1108.89C1233.36 1379.33 1334.27 1245.31 1334.27 1080C1334.27 914.685 1233.36 780.673 1108.89 780.673H1055.54" fill="#F49F82"/>
<path d="M1050.98 1379.33H1108.89C1233.36 1379.33 1334.27 1245.31 1334.27 1080C1334.27 914.685 1233.36 780.673 1108.89 780.673H1055.54" fill="#F49F82"/>
<path d="M1050.98 1379.33C1175.45 1379.33 1276.36 1245.31 1276.36 1080C1276.36 914.686 1175.45 780.673 1050.98 780.673C926.512 780.673 825.609 914.686 825.609 1080C825.609 1245.31 926.512 1379.33 1050.98 1379.33Z" fill="#FFCAB1"/>
<path d="M1047.98 1315.02C1142.92 1315.02 1219.88 1209.95 1219.88 1080.33C1219.88 950.722 1142.92 845.65 1047.98 845.65C953.041 845.65 876.079 950.722 876.079 1080.33C876.079 1209.95 953.041 1315.02 1047.98 1315.02Z" fill="#F49F82"/>
<path d="M1050.98 1379.33C1175.45 1379.33 1276.36 1245.31 1276.36 1080C1276.36 914.686 1175.45 780.673 1050.98 780.673C926.512 780.673 825.609 914.686 825.609 1080C825.609 1245.31 926.512 1379.33 1050.98 1379.33Z" fill="#FFCAB1"/>
<path d="M1047.98 1315.02C1142.92 1315.02 1219.88 1209.95 1219.88 1080.33C1219.88 950.722 1142.92 845.65 1047.98 845.65C953.041 845.65 876.079 950.722 876.079 1080.33C876.079 1209.95 953.041 1315.02 1047.98 1315.02Z" fill="#F49F82"/>
<path d="M1050.98 1379.33C1175.45 1379.33 1276.36 1245.31 1276.36 1080C1276.36 914.686 1175.45 780.673 1050.98 780.673C926.512 780.673 825.609 914.686 825.609 1080C825.609 1245.31 926.512 1379.33 1050.98 1379.33Z" fill="#FFCAB1"/>
<path d="M1047.98 1315.02C1142.92 1315.02 1219.88 1209.95 1219.88 1080.33C1219.88 950.722 1142.92 845.65 1047.98 845.65C953.041 845.65 876.079 950.722 876.079 1080.33C876.079 1209.95 953.041 1315.02 1047.98 1315.02Z" fill="#F49F82"/>
<path d="M1104.01 858.907C1104.01 858.907 1128.31 886.171 1117.55 929.899C1106.99 972.805 1078.18 976.596 1053.21 966.873C1021.91 954.692 952.542 985.103 962.552 1050.54C972.562 1115.98 1003.26 1168.06 991.243 1191.43C980.863 1211.63 917.844 1216.14 897.16 1160.71C897.16 1160.71 903.211 1185.52 916.632 1212.38C926.438 1232 938.534 1250.32 954.876 1266.96C963.353 1275.6 972.445 1283.64 981.26 1289.66C1011.3 1310.16 1037.72 1313.36 1047.85 1314.16C1062.81 1315.33 1087.88 1310.3 1107.29 1300.21C1110.41 1298.58 1114.27 1296.63 1117.01 1294.83C1117.01 1294.83 1060.6 1299.66 1046.25 1222.66C1046.25 1222.66 1043.21 1192.64 1016.69 1129.57C1000.55 1091.16 1024.8 1069.48 1044.51 1076.06C1066.68 1083.45 1107.04 1071.05 1091.03 1032.99C1075.01 994.933 1160.46 981.79 1192.31 1028.64C1221.84 1072.08 1218.6 1102.58 1218.6 1102.58C1218.6 1102.58 1221.3 1075.33 1217.19 1041.84C1215.77 1030.27 1213.48 1015.66 1209.79 1002.25C1208.02 995.804 1206.86 991.676 1204.75 984.863C1204.27 983.309 1201.97 977.441 1200.87 974.408C1198.93 969.044 1195.9 962.541 1194.76 959.856C1184.95 936.796 1174.04 920.57 1162.36 906.268C1133.53 870.961 1104.01 858.903 1104.01 858.903L1104.01 858.907Z" fill="#FEFCFC"/>
<path d="M1062.83 787.871C1062.83 787.871 1177.87 793.532 1233.81 923.747C1289.76 1053.96 1263.36 1143.91 1263.36 1143.91C1263.36 1143.91 1258.33 1113.72 1249.53 1104.91C1249.53 1104.91 1245.13 1072.2 1224.39 1075.35C1224.39 1075.35 1225.64 1020.62 1198.61 957.087C1171.58 893.553 1125.07 865.246 1098.66 850.777C1098.66 850.777 1100.55 831.906 1089.23 813.663C1077.92 795.419 1062.83 787.871 1062.83 787.871H1062.83Z" fill="#FEFCFC"/>
<path d="M885.598 1160.05C885.598 1160.05 872.598 1150.42 862.004 1140.78C851.41 1131.15 835.041 1110.91 833.116 1099.83C833.116 1099.83 836.006 1189.93 885.117 1270.88C934.228 1351.82 1012.95 1372.78 1050.99 1372.3C1089.02 1371.82 1127.31 1359.53 1169.68 1324.36C1169.68 1324.36 1146.57 1340.8 1125.87 1323.88C1124.34 1322.63 1122.8 1321.33 1121.12 1320.21C1110.82 1313.28 1098.08 1311.08 1085.97 1313.77C1059.35 1319.66 993.904 1324.97 934.716 1256.91C902.457 1219.81 885.605 1160.06 885.605 1160.06L885.598 1160.05Z" fill="#FEFCFC"/>
<path d="M1047.98 845.653C1047.98 845.653 938.444 845.122 895.047 1009.02C895.047 1009.02 871.433 1075.44 902.931 1180.5C934.429 1285.57 1029.44 1315.11 1050.44 1315.11C1050.44 1315.11 952.446 1320.01 901.349 1203.74C850.252 1087.47 889.45 979.602 908.348 943.88C927.246 908.159 976.925 842.678 1047.98 845.65V845.653Z" fill="#211665"/>
<path d="M1198.36 1306.71H1256.22C1256.22 1306.71 1287.95 1270.28 1297.29 1244.14H1239.89C1239.89 1244.14 1224.03 1271.22 1198.36 1306.71Z" fill="#211665"/>
<path d="M1246.89 1229.19H1304.75C1304.75 1229.19 1314.55 1207.25 1317.35 1195.1H1259.02C1259.02 1195.1 1251.56 1217.98 1246.89 1229.19Z" fill="#211665"/>
<path d="M1243.97 928.463L1252.75 946.84H1311.84L1303.06 929.261L1243.97 928.463Z" fill="#211665"/>
<path d="M1217.64 878.119H1275.12C1275.12 878.119 1257.84 854.147 1252.25 849.351H1195.26C1195.26 849.351 1213.64 871.726 1217.64 878.119Z" fill="#211665"/>
<path d="M1066.73 780.784L1120.31 780.994C1120.31 780.994 1156.87 784.147 1181.67 796.766C1206.47 809.381 1229.11 824.565 1252.25 849.354C1252.25 849.354 1215.29 815.901 1186.08 803.913C1156.87 791.929 1128.3 785.83 1129.14 792.768C1129.98 799.708 1164.02 808.96 1193.65 847.858C1193.65 847.858 1162.97 813.162 1119.05 794.451C1119.05 794.451 1091.53 783.726 1066.73 780.784H1066.73Z" fill="#FEFCFC"/>
<path d="M1268.03 1162.13L1325.25 1162.88C1325.25 1162.88 1340.11 1084.06 1331.94 1028.3L1273.24 1027.55C1273.24 1027.55 1282.15 1110.09 1268.04 1162.13H1268.03Z" fill="#F7ACF6"/>
<path d="M1259.02 1195.1H1317.35L1325.25 1162.88L1268.03 1162.13C1268.03 1162.13 1262.64 1190.9 1259.02 1195.1Z" fill="#FFD7A3"/>
<path d="M1110.49 1369.05L1168.33 1368.62C1168.33 1368.62 1215.29 1352.67 1256.22 1306.71H1198.36C1198.36 1306.71 1171.83 1341.43 1110.48 1369.06L1110.49 1369.05Z" fill="#FFD7A3"/>
<path d="M1156.08 1344.7L1214.54 1344.75L1230.41 1332.37L1172.83 1332.46L1156.08 1344.7Z" fill="#FEFCFC"/>
<path d="M1050.98 1379.33H1108.89C1233.36 1379.33 1334.27 1245.31 1334.27 1080C1334.27 914.685 1233.36 780.673 1108.89 780.673H1055.54" stroke="black" strokeLinejoin="round" strokeWidth="1.4781"/>
<path d="M1050.98 1379.33C1175.45 1379.33 1276.36 1245.31 1276.36 1080C1276.36 914.686 1175.45 780.673 1050.98 780.673C926.512 780.673 825.609 914.686 825.609 1080C825.609 1245.31 926.512 1379.33 1050.98 1379.33Z" stroke="black" strokeLinejoin="round" strokeWidth="1.4781"/>
<path d="M1050.98 1372.3C1171.3 1372.3 1268.83 1241.43 1268.83 1080C1268.83 918.569 1171.3 787.704 1050.98 787.704C930.665 787.704 833.129 918.569 833.129 1080C833.129 1241.43 930.665 1372.3 1050.98 1372.3Z" stroke="black" strokeLinejoin="round" strokeWidth="1.43614"/>
<path d="M1047.98 1315.02C1142.92 1315.02 1219.88 1209.95 1219.88 1080.33C1219.88 950.722 1142.92 845.65 1047.98 845.65C953.041 845.65 876.079 950.722 876.079 1080.33C876.079 1209.95 953.041 1315.02 1047.98 1315.02Z" stroke="black" strokeLinejoin="round" strokeWidth="1.14238"/>
<path d="M1057.79 1314.65C962.849 1314.65 886.623 1209.95 886.623 1080.34C886.623 950.727 963.584 845.654 1058.52 845.654" stroke="black" strokeLinejoin="round" strokeWidth="1.14238"/>
<path d="M490.786 1061.04L485.8 1141.52L442.355 1147.93C442.355 1147.93 483.664 1150.07 484.377 1152.92C485.09 1155.77 486.513 1275.42 486.513 1275.42L493.635 1152.92L535.658 1145.8L494.349 1139.39L490.786 1061.04Z" fill="white"/>
<path d="M565.152 937.786L560.167 1021.12L520.281 1023.97L559.453 1029.67L562.303 1120.12L568.002 1031.09L605.035 1028.95L567.289 1018.27L565.152 937.786Z" fill="white"/>
<path d="M619.634 1077.39L614.648 1110.15L594.708 1113L614.648 1117.27L617.498 1156.44L622.483 1118.7L640.29 1114.42L623.197 1110.15L619.634 1077.39Z" fill="white"/>
<path d="M787.723 1120.12L784.873 1144.34L769.203 1146.47L784.16 1150.03L786.297 1172.83L789.859 1151.46L804.103 1147.18L791.282 1143.63L787.723 1120.12Z" fill="white"/>
<path d="M758.128 1160.28L757.072 1169.29L751.244 1170.08L756.807 1171.41L757.601 1179.88L758.923 1171.94L764.221 1170.35L759.452 1169.02L758.128 1160.28Z" fill="white"/>
<path d="M763.589 1101.32L762.529 1110.32L756.701 1111.12L762.264 1112.44L763.059 1120.92L764.384 1112.97L769.678 1111.38L764.913 1110.06L763.589 1101.32Z" fill="white"/>
<path d="M591.316 1142.97L590.256 1151.98L584.431 1152.77L589.991 1154.1L590.786 1162.57L592.11 1154.63L597.409 1153.04L592.64 1151.71L591.316 1142.97Z" fill="white"/>
<path d="M611.276 1207.84L610.216 1216.85L604.391 1217.64L609.954 1218.97L610.746 1227.44L612.07 1219.5L617.369 1217.91L612.6 1216.58L611.276 1207.84Z" fill="white"/>
<path d="M746.79 1245.5L742.517 1286.1L714.739 1294.65L741.091 1296.07L745.363 1335.96L749.639 1296.78L779.55 1286.1L751.776 1284.67L746.79 1245.5Z" fill="white"/>
<path d="M1257.13 603.042C1257.13 603.042 1247.95 723.428 1201.01 769.34C1154.08 815.248 1099 811.169 1099 811.169C1099 811.169 1144 824.424 1161.22 835.655C1161.22 835.655 1167.35 813.212 1207.13 811.169C1241.95 809.384 1247.08 851.341 1242.35 869.377C1241.68 871.953 1240.8 874.04 1239.78 875.444C1231.62 886.668 1277.53 818.313 1316.3 827.493C1355.06 836.673 1344.86 856.059 1344.86 856.059C1344.86 856.059 1395.88 850.958 1397.92 884.624C1399.95 918.291 1344.86 930 1285.69 938.695C1285.69 938.695 1375.47 941.756 1384.65 960.12C1397.92 989 1403 1064 1403 1064C1403 1064 1403 981 1416.28 958.077C1429.54 941.752 1528.5 936.651 1528.5 936.651C1528.5 936.651 1436.68 915.226 1431.58 899.924C1426.48 884.621 1436.68 878.498 1436.68 878.498C1436.68 878.498 1414.24 863.196 1414.24 846.871C1414.24 830.547 1514.22 775.455 1514.22 775.455C1514.22 775.455 1398.94 837.687 1356.09 824.424C1313.24 811.161 1324.46 792.797 1324.46 792.797C1324.46 792.797 1261.21 820.341 1254.06 799.938C1246.92 779.534 1276.61 766.279 1296 769.34C1296 769.34 1249 775.455 1257.13 603.039V603.042Z" fill="white"/>
<path d="M824.885 1075.38C824.885 1075.38 786.561 1061.74 758.07 1087.39C729.582 1113.02 745.724 1120.62 745.724 1120.62C745.724 1120.62 729.582 1125.37 744.773 1141.51C744.773 1141.51 708.688 1123.47 700.139 1171.9C691.594 1220.33 767.562 1226.98 792.253 1208.94C792.253 1208.94 804.599 1246.92 839.737 1249.77C874.875 1252.62 892.916 1221.28 892.916 1221.28C892.916 1221.28 898.432 1245.91 929.953 1252.15C929.953 1252.15 912.859 1257.85 904.314 1269.24C904.314 1269.24 876.774 1243.13 861.582 1265.92C861.582 1265.92 819.797 1257.37 804.602 1299.15C804.602 1299.15 805.553 1243.12 772.314 1239.33C772.314 1239.33 767.566 1225.08 741.924 1228.88C716.285 1232.68 690.643 1270.66 690.643 1270.66C690.643 1270.66 695.391 1247.87 675.448 1237.43C655.505 1226.98 626.066 1248.82 626.066 1248.82C626.066 1248.82 650.757 1235.53 650.757 1209.89C650.757 1184.25 599.477 1177.6 599.477 1177.6C599.477 1177.6 651.708 1165.25 663.103 1150.06C674.497 1134.86 640.31 1130.11 640.31 1130.11C640.31 1130.11 699.188 1134.86 693.489 1090.23C693.489 1090.23 711.534 1077.88 711.534 1059.84C711.534 1041.79 696.339 1043.7 696.339 1043.7C696.339 1043.7 705.835 1026.6 697.29 969.623C697.29 969.623 711.534 1032.3 724.83 1038.95C724.83 1038.95 711.534 1057.94 727.68 1070.29C743.822 1082.63 761.867 1058.89 778.96 1055.09C796.054 1051.29 801.753 1056.04 810.298 1052.24C818.843 1048.44 817.895 1034.2 804.599 1029.45C804.599 1029.45 820.735 1027.57 829.307 1020.25C826.121 1041.25 825.276 1057.11 824.885 1075.38Z" fill="white"/>
<path d="M1455.24 957.981L1451.69 985.675L1425.45 989.05L1450.27 992.429L1453.82 1027.55L1456.65 992.429L1485.02 989.05L1458.07 984.996L1455.24 957.981Z" fill="white"/>
<path d="M1310.61 844.467L1306.17 871.533L1287.53 874.197L1306.17 877.302L1308.39 908.363L1312.38 878.192L1333.68 874.197L1312.38 870.646L1310.61 844.467Z" fill="white"/>
<path d="M1358.67 998.052L1356.45 1011.59L1347.13 1012.92L1356.45 1014.47L1357.56 1030L1359.56 1014.92L1370.21 1012.92L1359.56 1011.14L1358.67 998.052Z" fill="white"/>
<path d="M1385.36 766.344L1383.15 779.881L1373.83 781.209L1383.15 782.763L1384.25 798.296L1386.25 783.209L1396.9 781.209L1386.25 779.436L1385.36 766.344Z" fill="white"/>
<path d="M1371.07 1050.12L1370.28 1052.7L1368.58 1053.32L1370.28 1054.03L1370.83 1057L1371.6 1054.13L1373.55 1053.32L1371.6 1052.6L1371.07 1050.12Z" fill="white"/>
<path d="M1356.34 897.49L1355.55 900.069L1353.86 900.69L1355.55 901.398L1356.1 904.371L1356.87 901.496L1358.83 900.69L1356.87 899.975L1356.34 897.49Z" fill="white"/>
<path d="M1360.1 785.193L1359.31 787.769L1357.61 788.393L1359.31 789.101L1359.86 792.071L1360.63 789.196L1362.58 788.393L1360.63 787.675L1360.1 785.193Z" fill="white"/>
<path d="M1375.11 884.905L1374.32 887.485L1372.63 888.109L1374.32 888.817L1374.87 891.787L1375.64 888.912L1377.6 888.109L1375.64 887.39L1375.11 884.905Z" fill="white"/>
<path d="M1366.54 1094.44L1365.75 1097.02L1364.05 1097.64L1365.75 1098.35L1366.3 1101.32L1367.06 1098.44L1369.02 1097.64L1367.06 1096.92L1366.54 1094.44Z" fill="white"/>
<path d="M1535.03 -4.71326C1535.03 -4.71326 1529.76 144.423 1529.76 148.383C1529.76 152.343 1490.2 209.093 1490.2 209.093L1532.4 177.416L1549.55 319.954L1553.5 161.58L1615.49 90.3117L1546.91 135.186L1535.04 -4.71326H1535.03Z" fill="#6143B5"/>
<path d="M-27.1762 72.4931C-27.1762 72.4931 -37.0674 341.732 -43.0012 347.67C-48.935 353.608 -147.852 314.016 -147.852 314.016L-143.894 345.692C-143.894 345.692 -46.9586 387.267 -43.0012 393.205C-39.0438 399.143 -27.1762 652.546 -27.1762 652.546L-3.43639 407.063L135.045 458.536C135.045 458.536 -7.39378 357.573 -9.37013 351.635C-11.3465 345.697 -27.1762 72.4978 -27.1762 72.4978V72.4931Z" fill="#6143B5"/>
<path d="M2011.31 699.051L2023.19 604.026L2033.08 695.091L2112.21 701.033L2033.08 718.847L2021.21 851.486L2009.34 720.829L1946.03 718.847L2011.31 699.051Z" fill="#6143B5"/>
<path d="M1810.68 777.265L1798.81 973.253L1711.77 983.151L1796.83 997.009L1802.77 1208.84L1822.55 998.987L1951.14 989.089L1820.57 971.275L1810.68 777.265Z" fill="#6143B5"/>
<path d="M339.798 792.11L332.874 907.922L277.484 911.882L331.888 919.803L335.845 1045.51L343.756 921.78L395.193 918.811L342.77 903.962L339.798 792.11Z" fill="#6143B5"/>
<path d="M220.698 1050.06L227.622 938.207L232.57 1047.09L289.941 1056L231.58 1065.89L221.689 1236.15C221.689 1236.15 219.712 1069.85 218.722 1065.89C217.731 1061.93 160.36 1058.97 160.36 1058.97L220.698 1050.06Z" fill="#6143B5"/>
<path d="M49.9771 1497.87C53.9345 1487.97 63.8257 1238.53 63.8257 1238.53V1238.54L79.6507 1487.98L178.567 1489.96C178.567 1489.96 79.6507 1527.57 77.6744 1533.51C75.698 1539.45 61.8494 1786.91 61.8494 1786.91C61.8494 1786.91 48.0008 1551.32 44.0433 1541.43C40.0859 1531.53 -56.8497 1547.36 -56.8497 1547.36C-56.8497 1547.36 46.0197 1507.77 49.9771 1497.87Z" fill="#6143B5"/>
<path d="M395.193 989.089L402.117 943.559L407.065 989.089L430.805 995.032L406.074 1000.97L399.15 1053.43L395.193 998.987L367.495 993.05L395.193 989.089Z" fill="#6143B5"/>
<path d="M361.317 1047.22L362.789 1034.7L364.628 1046.85L371.251 1048.69L363.892 1050.9L362.053 1061.94L360.949 1050.17L353.223 1048.33L361.317 1047.22Z" fill="#6143B5"/>
<path d="M390.509 1124.86L389.037 1137.38L380.943 1138.48L388.669 1140.32L389.773 1152.1L391.613 1141.06L398.971 1138.85L392.348 1137.01L390.509 1124.86Z" fill="#6143B5"/>
<path d="M1169.71 1947.26L1159.82 2033.38L1084.64 2047.24L1158.83 2054.16L1166.74 2188.78L1179.6 2054.16L1252.79 2042.28L1177.62 2030.4L1169.71 1947.26Z" fill="#6143B5"/>
<path d="M1028.25 1929.44L1033.2 1888.86L1037.16 1929.44L1091.56 1936.37L1037.16 1943.3L1031.22 1991.8L1026.28 1941.32L972.863 1935.38L1028.25 1929.44Z" fill="#6143B5"/>
<path d="M1939.64 1386.92L1932.77 1473.46L1871.84 1466.57L1930.8 1489.19L1936.7 1636.68L1946.53 1494.1L2020.22 1501.97L1946.53 1473.46L1939.64 1386.92Z" fill="#6143B5"/>
<path d="M2030.27 1092.03L2048.08 882.188L2057.97 1095.99L2218.21 1121.73L2059.95 1125.69L2040.16 1428.58L2030.27 1119.75L1909.59 1094.01L2030.27 1092.03Z" fill="#6143B5"/>
<path d="M747.412 194.48L751.408 135.148L758.072 196.481L792.048 219.812L760.068 213.148L755.407 285.814L748.077 207.814L713.437 187.815L747.412 194.48Z" fill="#6143B5"/>
<path d="M547.556 179.149L542.226 234.478L514.91 222.479L540.891 247.812L544.226 306.478L551.551 253.811L577.531 271.143L550.886 237.81L547.556 179.149Z" fill="#6143B5"/>
<path d="M456.283 81.8363L456.286 81.8155L456.281 81.8108L456.283 81.8363Z" fill="#6143B5"/>
<path d="M448.956 127.147L456.283 81.8363L458.946 132.476L477.601 165.144L457.616 148.477L452.286 202.475C452.286 202.475 448.956 145.145 448.956 142.478C448.956 139.811 424.306 113.813 424.306 113.813L448.956 127.147Z" fill="#6143B5"/>
<path d="M1461.18 338.433L1459.86 284.322L1471.73 329.196L1500.74 313.355L1471.73 345.032L1477 416.301L1461.18 354.269L1441.4 368.788L1461.18 338.433Z" fill="#6143B5"/>
<path d="M645.558 902.948L641.601 936.602L619.842 939.571L640.615 944.522L643.582 976.199L648.525 946.5L668.307 940.562L650.506 935.615L645.558 902.948Z" fill="#6143B5"/>
<path d="M602.989 971.28L604.46 958.762L606.3 970.912L612.922 972.753L605.564 974.962L603.724 986.007L602.621 974.225L594.894 972.385L602.989 971.28Z" fill="#6143B5"/>
<path d="M612.04 876.817L610.568 889.335L602.474 890.439L610.2 892.28L611.304 904.057L613.144 893.012L620.502 890.807L613.879 888.966L612.04 876.817Z" fill="#6143B5"/>
<path d="M527.522 1266.95L533.456 1210.52L540.38 1264.97L578.959 1266.95L537.414 1281.79L531.48 1336.24L525.546 1280.81L488.948 1278.82L527.522 1266.95Z" fill="#6143B5"/>
<path d="M1428.98 653.532L1432.94 687.187L1454.7 690.155L1433.92 695.107L1430.96 726.783L1426.01 697.085L1406.23 691.147L1424.03 686.2L1428.98 653.532Z" fill="#6143B5"/>
<path d="M1471.55 721.865L1470.08 709.347L1468.24 721.497L1461.62 723.337L1468.97 725.547L1470.81 736.591L1471.92 724.81L1479.64 722.969L1471.55 721.865Z" fill="#6143B5"/>
<path d="M1462.5 627.402L1463.97 639.919L1472.06 641.024L1464.34 642.865L1463.23 654.641L1461.4 643.596L1454.04 641.392L1460.66 639.551L1462.5 627.402Z" fill="#6143B5"/>
</g>
<defs>
<clipPath id="clip0_11765_12508">
<rect fill="white" height="2160" width="2160"/>
</clipPath>
</defs>
</svg>